:SAMPLES-PER-SECOND 30
:FULLY-SPECIFIED
:DEGREES
290
root  44.7026 39.457 0.222807 -170.681 -79.9284 -179.778
RightUpLeg  -26.3402 -14.2021 -6.75057
RightLeg  42.9443 -4.68266 -4.93818
RightFoot  -6.65535 -0.466095 10.2706
RightToes  2.32829e-010 0 -3.6325e-017
Spine  36.4598 -0.489792 -3.29879
Spine1  -5.26849 -1.65147 1.43728
HEad  -35.7443 13.291 -6.82539
LeftShoulder1  9.46581 -13.681 -48.0846
LeftArm  -19.0643 23.9605 -18.7311
LeftForeArm  20.456 -39.8064 -8.02818
LeftHand  -0.244104 0.0205437 5.32207
RightShoulder  4.73997 8.96745 32.0655
RightArm  -3.63089 -36.0367 31.4425
RightForeArm  -37.9944 27.5559 7.59792
RightHand  0.0728463 -6.12778 -14.3301
LeftUpLeg  -26.007 15.2075 1.26147
LeftLeg  9.72908 18.6579 -4.83047
LeftFoot  6.73802 -1.118 6.76045
LeftToes  1.42787e-010 7.94111e-011 2.6399e-011
291
root  44.9223 39.4941 0.176299 -171.293 -79.327 179.424
RightUpLeg  -21.3339 -14.261 -7.9285
RightLeg  45.4897 -6.12692 -6.93017
RightFoot  -5.98182 -0.34411 6.64908
RightToes  2.32829e-010 0 -3.6325e-017
Spine  34.9985 -0.285974 -2.51065
Spine1  -5.79014 -1.08409 0.631023
HEad  -32.7573 12.6777 -6.72611
LeftShoulder1  9.42808 -13.6495 -47.9795
LeftArm  -19.2636 23.9381 -19.049
LeftForeArm  21.1442 -40.4081 -8.16976
LeftHand  -0.244104 0.0205437 5.32207
RightShoulder  4.77159 8.91341 32.4862
RightArm  -5.90541 -31.9037 30.9287
RightForeArm  -37.0656 32.2077 8.81104
RightHand  -0.0228317 -5.32734 -15.9974
LeftUpLeg  -24.416 15.0564 1.60166
LeftLeg  9.05644 19.3348 -4.67595
LeftFoot  7.39698 -1.17148 6.81806
LeftToes  1.42787e-010 7.94111e-011 2.6399e-011
292
root  45.2229 39.4413 0.0614251 -169.968 -78.8576 176.945
RightUpLeg  -15.8856 -14.7394 -9.15176
RightLeg  44.4269 -7.46672 -8.06034
RightFoot  -3.70855 -0.355266 4.78962
RightToes  2.32829e-010 0 -3.6325e-017
Spine  33.3747 -0.121313 -1.75629
Spine1  -6.40164 -0.474114 -0.663137
HEad  -29.7282 11.9277 -6.5345
LeftShoulder1  9.40358 -13.6672 -47.8034
LeftArm  -19.6938 23.7139 -19.4072
LeftForeArm  20.6844 -40.7522 -8.30804
LeftHand  -0.244104 0.0205437 5.32207
RightShoulder  4.87869 8.99587 33.0876
RightArm  -7.30672 -27.5642 30.5028
RightForeArm  -34.9523 37.2168 10.2486
RightHand  -0.164184 -4.37945 -17.6072
LeftUpLeg  -23.5876 14.7746 1.63877
LeftLeg  9.03046 20.0037 -4.37095
LeftFoot  7.94575 -1.19952 6.76545
LeftToes  1.42787e-010 7.94111e-011 2.6399e-011
293
root  45.6146 39.3258 -0.115985 -167.193 -78.2251 173.479
RightUpLeg  -10.34 -15.4637 -10.4328
RightLeg  39.5418 -7.82237 -7.16197
RightFoot  -3.51183 -0.527205 7.54624
RightToes  2.32829e-010 0 -3.6325e-017
Spine  31.4364 0.191753 -1.25248
Spine1  -6.81193 0.189179 -1.94763
HEad  -27.0625 11.2287 -6.39265
LeftShoulder1  9.40184 -13.7374 -47.597
LeftArm  -20.2059 23.3261 -19.7229
LeftForeArm  20.1851 -41.1445 -8.46616
LeftHand  -0.244104 0.0205437 5.32207
RightShoulder  5.05768 9.23022 33.7721
RightArm  -7.64052 -22.6609 30.0448
RightForeArm  -32.3778 41.9359 11.8006
RightHand  -0.334019 -3.40282 -19.0335
LeftUpLeg  -23.4681 14.6405 1.43998
LeftLeg  9.14901 20.6392 -4.15809
LeftFoot  8.54935 -1.22792 6.69656
LeftToes  1.42787e-010 7.94111e-011 2.6399e-011
294
root  46.0912 39.1823 -0.345898 -164.064 -77.4185 169.809
RightUpLeg  -5.05757 -16.7014 -11.7417
RightLeg  32.2896 -6.67403 -4.79797
RightFoot  -7.52268 -0.456512 12.3936
RightToes  2.32829e-010 0 -3.6325e-017
Spine  29.5229 0.577886 -0.967726
Spine1  -6.91742 0.794834 -2.89008
HEad  -25.0111 10.6494 -6.54544
LeftShoulder1  9.45724 -13.8639 -47.5276
LeftArm  -20.5208 22.76 -19.7317
LeftForeArm  20.1133 -41.7057 -8.65278
LeftHand  -0.244104 0.0205437 5.32207
RightShoulder  5.21546 9.49465 34.1751
RightArm  -7.19937 -16.9481 30.0386
RightForeArm  -29.7254 45.7232 13.2232
RightHand  -0.476839 -2.64515 -19.8958
LeftUpLeg  -23.5382 14.8603 1.12207
LeftLeg  9.06435 21.0611 -4.13833
LeftFoot  9.34844 -1.27522 6.66437
LeftToes  1.42787e-010 7.94111e-011 2.6399e-011
295
root  46.6721 39.0237 -0.596207 -162.238 -76.7485 167.305
RightUpLeg  -0.993008 -18.4667 -12.6697
RightLeg  25.7033 -4.42322 -2.52857
RightFoot  -13.026 0.104232 14.2439
RightToes  2.32829e-010 0 -3.6325e-017
Spine  27.9922 0.716874 -0.227748
Spine1  -6.67453 1.228 -3.79856
HEad  -23.6015 10.1365 -7.1141
LeftShoulder1  9.61488 -14.0595 -47.7857
LeftArm  -20.4126 21.64 -19.2002
LeftForeArm  20.2258 -42.0782 -8.76763
LeftHand  -0.244104 0.0205437 5.32207
RightShoulder  5.35753 9.76726 34.4176
RightArm  -6.39113 -10.3726 30.699
RightForeArm  -26.9357 47.9969 14.132
RightHand  -0.526614 -2.33734 -19.7728
LeftUpLeg  -23.6561 15.405 0.879847
LeftLeg  8.95451 21.051 -4.00594
LeftFoot  10.3571 -1.32686 6.58472
LeftToes  1.42787e-010 7.94111e-011 2.6399e-011
296
root  47.3383 38.9082 -0.816581 -163.791 -76.2321 168.096
RightUpLeg  0.864444 -19.8697 -12.3629
RightLeg  22.3683 -3.01475 -1.56979
RightFoot  -16.3909 0.412537 11.8408
RightToes  2.32829e-010 0 -3.6325e-017
Spine  26.7136 0.51235 1.85521
Spine1  -5.93923 1.60962 -4.98712
HEad  -22.8084 9.72532 -8.06573
LeftShoulder1  9.87656 -14.3159 -48.3872
LeftArm  -20.0403 19.7026 -18.3724
LeftForeArm  20.3431 -41.87 -8.69157
LeftHand  -0.244104 0.0205437 5.32207
RightShoulder  5.61977 10.1574 35.1686
RightArm  -5.08738 -2.96969 31.3056
RightForeArm  -24.2816 48.4786 14.2322
RightHand  -0.542346 -2.10786 -18.9776
LeftUpLeg  -23.5773 15.7653 1.40663
LeftLeg  8.4576 21.2157 -3.75135
LeftFoot  11.6604 -1.3708 6.37948
LeftToes  1.42787e-010 7.94111e-011 2.6399e-011
297
root  48.0506 38.8451 -1.00002 -168.402 -75.4437 171.84
RightUpLeg  1.00772 -19.8454 -10.807
RightLeg  21.8293 -3.27602 -1.66511
RightFoot  -17.5176 0.353722 8.69749
RightToes  2.32829e-010 0 -3.6325e-017
Spine  25.5071 0.249657 4.75936
Spine1  -4.595 2.09277 -6.16129
HEad  -22.4563 9.62599 -9.24235
LeftShoulder1  10.1408 -14.5793 -48.9635
LeftArm  -19.7186 17.4571 -17.9908
LeftForeArm  20.6189 -41.149 -8.43915
LeftHand  -0.244104 0.0205437 5.32207
RightShoulder  6.03094 10.6809 36.5191
RightArm  -2.60238 5.11811 31.4547
RightForeArm  -22.1514 46.8784 13.3747
RightHand  -0.643575 -1.29786 -18.1589
LeftUpLeg  -22.9321 15.2332 3.20298
LeftLeg  7.38082 22.6646 -3.71245
LeftFoot  13.1561 -1.40768 6.10517
LeftToes  1.42787e-010 7.94111e-011 2.6399e-011
298
root  48.7576 38.8135 -1.17456 -173.411 -74.3658 175.698
RightUpLeg  0.907402 -18.7265 -9.03282
RightLeg  22.0964 -4.0116 -2.01212
RightFoot  -17.974 0.29126 7.11748
RightToes  2.32829e-010 0 -3.6325e-017
Spine  24.4293 0.0534867 7.10769
Spine1  -2.85529 2.46032 -6.60751
HEad  -22.0896 10.1373 -10.4259
LeftShoulder1  10.2584 -14.7832 -48.9793
LeftArm  -19.4307 15.8737 -18.6252
LeftForeArm  21.3298 -40.3306 -8.13357
LeftHand  -0.244104 0.0205437 5.32207
RightShoulder  6.40624 11.1784 37.604
RightArm  1.72546 13.3248 32.155
RightForeArm  -20.7301 42.8464 11.6262
RightHand  -0.807789 -0.0294047 -17.4875
LeftUpLeg  -21.4098 13.7699 5.73583
LeftLeg  5.51349 25.2355 -4.25917
LeftFoot  14.8098 -1.48805 6.00642
LeftToes  1.42787e-010 7.94111e-011 2.6399e-011
299
root  49.3921 38.7972 -1.35178 -177.538 -73.68 178.429
RightUpLeg  1.29059 -17.9057 -7.74449
RightLeg  22.4294 -4.24689 -2.14755
RightFoot  -18.4209 0.269674 6.37311
RightToes  2.32829e-010 0 -3.6325e-017
Spine  23.3365 -0.263447 8.50854
Spine1  -1.19172 2.32293 -5.97766
HEad  -21.0533 11.1538 -11.3554
LeftShoulder1  10.2156 -14.9232 -48.3999
LeftArm  -18.8974 15.3541 -20.0368
LeftForeArm  22.4777 -39.6925 -7.86312
LeftHand  -0.244104 0.0205437 5.32207
RightShoulder  6.57068 11.499 37.7593
RightArm  7.97391 20.4923 34.5675
RightForeArm  -20.1821 36.931 9.53253
RightHand  -0.905455 0.873002 -16.8267
LeftUpLeg  -19.3352 12.0442 7.9895
LeftLeg  2.98831 27.4581 -5.21618
LeftFoot  16.5294 -1.61259 6.08026
LeftToes  1.42787e-010 7.94111e-011 2.6399e-011
300
root  49.9139 38.7931 -1.53173 178.897 -73.7923 -179.331
RightUpLeg  1.98012 -18.1791 -6.87239
RightLeg  22.8468 -4.03155 -2.08918
RightFoot  -18.5059 0.220338 5.51567
RightToes  2.32829e-010 0 -3.6325e-017
Spine  21.9067 -0.72411 9.43851
Spine1  0.19962 1.74194 -4.71718
HEad  -19.1855 12.2463 -11.7481
LeftShoulder1  10.1754 -15.0631 -47.8393
LeftArm  -18.019 15.3562 -21.4232
LeftForeArm  23.571 -39.0467 -7.59982
LeftHand  -0.244104 0.0205437 5.32207
RightShoulder  6.57147 11.6467 37.3501
RightArm  15.1104 25.3367 38.1543
RightForeArm  -20.48 31.0269 7.8247
RightHand  -0.906701 1.09783 -16.2934
LeftUpLeg  -17.2725 10.7253 9.44457
LeftLeg  0.0774162 28.338 -6.13434
LeftFoot  18.2552 -1.70218 6.01023
LeftToes  1.42787e-010 7.94111e-011 2.6399e-011
301
root  50.3162 38.7927 -1.71442 175.473 -74.3173 -177.03
RightUpLeg  2.85119 -19.1195 -6.18602
RightLeg  23.0761 -3.72417 -1.95228
RightFoot  -18.2845 0.164325 4.75027
RightToes  2.32829e-010 0 -3.6325e-017
Spine  20.0964 -1.05538 10.3275
Spine1  1.4217 1.19553 -3.50007
HEad  -16.8517 12.8773 -11.3621
LeftShoulder1  10.2513 -15.2218 -47.7865
LeftArm  -16.9876 15.1175 -22.3277
LeftForeArm  24.0675 -37.9313 -7.24449
LeftHand  -0.244104 0.0205437 5.32207
RightShoulder  6.56098 11.7101 37.1081
RightArm  21.0006 27.2285 41.1252
RightForeArm  -20.7465 27.1325 6.84442
RightHand  -0.931651 1.2541 -16.3495
LeftUpLeg  -15.4313 10.1077 10.2638
LeftLeg  -2.74097 28.0619 -6.68573
LeftFoot  19.8551 -1.67268 5.54602
LeftToes  1.42787e-010 7.94111e-011 2.6399e-011
